<svg xmlns="http://www.w3.org/2000/svg" xmlns:xlink="http://www.w3.org/1999/xlink" width="40" zoomAndPan="magnify" viewBox="0 0 30 30.000001" height="40" preserveAspectRatio="xMidYMid meet" version="1.0"><defs><clipPath id="2c92808ca9"><path d="M 1.601562 12 L 15 12 L 15 16 L 1.601562 16 Z M 1.601562 12 " clip-rule="nonzero"/></clipPath><clipPath id="aaa19e66ff"><path d="M 14 10 L 28.457031 10 L 28.457031 16 L 14 16 Z M 14 10 " clip-rule="nonzero"/></clipPath><clipPath id="e0774f8bef"><path d="M 1.601562 6 L 28.457031 6 L 28.457031 16 L 1.601562 16 Z M 1.601562 6 " clip-rule="nonzero"/></clipPath><clipPath id="6ae2b6c571"><path d="M 2 18 L 28.457031 18 L 28.457031 28.785156 L 2 28.785156 Z M 2 18 " clip-rule="nonzero"/></clipPath><clipPath id="c60306483d"><path d="M 1.601562 14 L 28.457031 14 L 28.457031 16 L 1.601562 16 Z M 1.601562 14 " clip-rule="nonzero"/></clipPath><clipPath id="02b519cf29"><path d="M 14 0.476562 L 16 0.476562 L 16 2 L 14 2 Z M 14 0.476562 " clip-rule="nonzero"/></clipPath></defs><g clip-path="url(#2c92808ca9)"><path fill="#d88f86" d="M 9.484375 12.289062 C 7.78125 12.289062 4.820312 13.558594 3.054688 14.546875 C 2.882812 14.859375 2.539062 15.074219 2.1875 15.078125 C 1.820312 15.324219 1.605469 15.519531 1.605469 15.625 C 1.605469 16.136719 5.90625 15.226562 8.441406 15.226562 C 10.976562 15.226562 14.304688 14.835938 14.304688 14.324219 C 14.304688 13.8125 12.019531 12.289062 9.484375 12.289062 Z M 9.484375 12.289062 " fill-opacity="1" fill-rule="nonzero"/></g><path fill="#d88f86" d="M 10.5 10.710938 C 8.257812 10.710938 5.894531 12.253906 5.375 12.964844 C 5.378906 12.96875 5.378906 12.976562 5.382812 12.984375 C 5.394531 13.070312 5.40625 13.160156 5.417969 13.246094 C 5.417969 13.265625 5.417969 13.285156 5.417969 13.304688 C 5.871094 13.261719 7.382812 12.289062 9.484375 12.289062 C 12.019531 12.289062 14.589844 14.480469 14.589844 13.96875 C 14.589844 13.457031 13.039062 10.710938 10.5 10.710938 Z M 10.5 10.710938 " fill-opacity="1" fill-rule="nonzero"/><g clip-path="url(#aaa19e66ff)"><path fill="#d88f86" d="M 27.476562 14.703125 C 27.085938 14.703125 26.765625 14.476562 26.605469 14.152344 C 26.382812 14.09375 26.203125 13.96875 26.070312 13.785156 C 26.03125 13.789062 25.992188 13.792969 25.949219 13.792969 C 25.40625 13.792969 25 13.351562 24.96875 12.828125 C 23.238281 11.675781 21.25 10.621094 20.027344 10.621094 C 17.492188 10.621094 14.800781 12.59375 14.800781 13.105469 C 14.800781 13.617188 16.394531 15.226562 18.929688 15.226562 C 21.464844 15.226562 28.386719 16.191406 28.386719 15.679688 C 28.390625 15.554688 28.039062 15.1875 27.476562 14.703125 Z M 27.476562 14.703125 " fill-opacity="1" fill-rule="nonzero"/></g><path fill="#f58220" d="M 19.578125 10.453125 C 19.5625 10.320312 19.402344 10.199219 19.371094 10.074219 C 18.972656 8.378906 17.1875 7.105469 15.046875 7.105469 C 12.609375 7.105469 10.636719 8.757812 10.636719 10.792969 C 11.136719 10.800781 11.636719 10.898438 12.132812 11.128906 C 13.222656 11.644531 13.898438 12.519531 14.359375 13.570312 C 14.511719 13.675781 14.625 13.816406 14.699219 13.992188 C 14.8125 13.929688 14.933594 13.890625 15.0625 13.875 C 15.082031 13.871094 15.105469 13.867188 15.128906 13.867188 C 15.144531 13.867188 15.164062 13.867188 15.183594 13.871094 C 15.296875 13.875 15.40625 13.898438 15.507812 13.9375 C 15.542969 13.738281 15.652344 13.554688 15.800781 13.414062 C 15.832031 13.09375 16.050781 12.8125 16.335938 12.664062 C 16.417969 12.503906 16.53125 12.375 16.679688 12.277344 C 17.46875 11.300781 18.410156 10.851562 19.457031 10.796875 L 19.457031 10.792969 C 19.457031 10.683594 19.589844 10.5625 19.578125 10.453125 Z M 19.578125 10.453125 " fill-opacity="1" fill-rule="nonzero"/><path fill="#023adf" d="M 25.316406 17.96875 C 25.257812 17.964844 25.203125 17.96875 25.144531 17.96875 C 22.160156 17.964844 19.175781 17.964844 16.195312 17.960938 C 16.0625 17.960938 15.949219 17.945312 15.824219 17.863281 C 15.308594 17.515625 14.835938 17.117188 14.367188 16.714844 C 13.980469 16.378906 13.546875 16.414062 13.101562 16.417969 C 13.042969 16.421875 12.984375 16.441406 12.976562 16.507812 C 12.964844 16.597656 13.03125 16.625 13.101562 16.628906 C 13.261719 16.632812 13.414062 16.671875 13.53125 16.765625 C 13.988281 17.140625 14.433594 17.523438 14.957031 17.960938 L 14.160156 17.960938 C 11.035156 17.960938 7.90625 17.960938 4.78125 17.960938 C 4.664062 17.960938 4.457031 17.886719 4.460938 18.082031 C 4.464844 18.269531 4.671875 18.1875 4.789062 18.191406 C 5.429688 18.199219 6.066406 18.195312 6.707031 18.195312 C 7.535156 18.195312 7.535156 18.195312 7.496094 19.011719 L 7.496094 19.042969 C 7.503906 19.210938 7.433594 19.246094 7.289062 19.164062 C 6.863281 18.921875 6.394531 18.855469 5.914062 18.832031 C 5.285156 18.800781 4.722656 19.195312 4.636719 19.738281 C 4.484375 20.695312 5.296875 21.363281 6.273438 21.09375 C 6.933594 20.914062 7.214844 20.394531 7.101562 19.707031 C 7.09375 19.652344 7.058594 19.585938 7.125 19.554688 C 7.15625 19.539062 7.214844 19.558594 7.253906 19.578125 C 7.367188 19.636719 7.488281 19.699219 7.488281 19.84375 C 7.496094 20.207031 7.492188 20.566406 7.484375 20.929688 C 7.480469 21.046875 7.421875 21.144531 7.300781 21.195312 C 7.246094 21.214844 7.199219 21.253906 7.226562 21.324219 C 7.25 21.378906 7.304688 21.378906 7.351562 21.378906 C 7.691406 21.378906 8.035156 21.378906 8.378906 21.378906 C 8.425781 21.378906 8.480469 21.382812 8.5 21.324219 C 8.515625 21.269531 8.472656 21.234375 8.429688 21.214844 C 8.261719 21.140625 8.25 20.996094 8.25 20.835938 C 8.25 20.042969 8.253906 19.253906 8.238281 18.460938 C 8.234375 18.242188 8.3125 18.1875 8.519531 18.1875 C 9.261719 18.199219 10.003906 18.191406 10.75 18.195312 C 10.816406 18.195312 10.886719 18.183594 10.949219 18.199219 C 11.171875 18.261719 11.085938 18.449219 11.078125 18.582031 C 11.066406 18.761719 10.941406 18.6875 10.84375 18.648438 C 10.574219 18.539062 10.292969 18.511719 10.003906 18.527344 C 9.433594 18.558594 8.949219 18.90625 8.777344 19.40625 C 8.613281 19.878906 8.746094 20.410156 9.160156 20.75 C 9.671875 21.167969 10.257812 21.09375 10.84375 20.941406 C 10.910156 20.921875 10.980469 20.828125 11.046875 20.90625 C 11.105469 20.984375 11.042969 21.070312 10.996094 21.140625 C 10.976562 21.171875 10.941406 21.191406 10.910156 21.210938 C 10.871094 21.238281 10.820312 21.265625 10.839844 21.320312 C 10.855469 21.378906 10.914062 21.378906 10.957031 21.378906 C 11.292969 21.378906 11.625 21.378906 11.960938 21.375 C 12.007812 21.375 12.0625 21.359375 12.070312 21.308594 C 12.070312 21.277344 12.042969 21.226562 12.019531 21.214844 C 11.832031 21.140625 11.851562 20.984375 11.851562 20.832031 C 11.847656 20.050781 11.851562 19.265625 11.835938 18.484375 C 11.828125 18.257812 11.90625 18.1875 12.128906 18.1875 C 13.027344 18.199219 13.921875 18.199219 14.816406 18.1875 C 15.035156 18.1875 15.09375 18.265625 15.09375 18.476562 C 15.082031 19.226562 15.089844 19.980469 15.089844 20.734375 C 15.089844 20.929688 15.085938 21.121094 14.859375 21.207031 C 14.8125 21.226562 14.773438 21.261719 14.789062 21.316406 C 14.808594 21.371094 14.859375 21.378906 14.90625 21.378906 C 15.269531 21.378906 15.632812 21.378906 15.996094 21.375 C 16.042969 21.375 16.09375 21.367188 16.113281 21.3125 C 16.132812 21.261719 16.109375 21.210938 16.0625 21.195312 C 15.828125 21.125 15.847656 20.933594 15.84375 20.753906 C 15.839844 20.011719 15.84375 19.265625 15.832031 18.523438 C 15.828125 18.289062 15.898438 18.203125 16.140625 18.207031 C 16.847656 18.21875 17.550781 18.210938 18.257812 18.214844 C 18.695312 18.214844 18.742188 18.269531 18.695312 18.710938 C 18.679688 18.84375 18.628906 18.894531 18.492188 18.867188 C 18.226562 18.816406 17.960938 18.832031 17.695312 18.863281 C 17.152344 18.925781 16.746094 19.199219 16.589844 19.71875 C 16.414062 20.289062 16.617188 20.816406 16.972656 21.265625 C 17.125 21.457031 17.371094 21.367188 17.550781 21.253906 C 17.75 21.128906 17.570312 21.003906 17.511719 20.894531 C 17.351562 20.601562 17.269531 20.292969 17.277344 19.960938 C 17.296875 19.34375 17.84375 18.957031 18.433594 19.132812 C 18.625 19.191406 18.714844 19.285156 18.707031 19.5 C 18.695312 19.925781 18.703125 20.355469 18.707031 20.785156 C 18.707031 20.957031 18.679688 21.105469 18.515625 21.199219 C 18.472656 21.21875 18.425781 21.253906 18.4375 21.308594 C 18.457031 21.378906 18.519531 21.375 18.578125 21.375 C 18.910156 21.375 19.246094 21.375 19.578125 21.375 C 19.632812 21.375 19.703125 21.378906 19.714844 21.304688 C 19.722656 21.253906 19.683594 21.210938 19.636719 21.199219 C 19.445312 21.160156 19.453125 21.011719 19.453125 20.867188 C 19.449219 20.066406 19.453125 19.265625 19.4375 18.464844 C 19.4375 18.253906 19.503906 18.183594 19.71875 18.1875 C 20.472656 18.195312 21.222656 18.191406 21.976562 18.191406 C 22.792969 18.191406 22.792969 18.191406 22.769531 19.011719 C 22.769531 19.03125 22.769531 19.050781 22.769531 19.070312 C 22.769531 19.222656 22.75 19.277344 22.574219 19.175781 C 22.023438 18.871094 21.421875 18.78125 20.808594 18.882812 C 20.082031 19.007812 19.707031 19.726562 19.984375 20.40625 C 20.152344 20.828125 20.542969 21.148438 21.328125 21.152344 C 22.066406 21.15625 22.492188 20.308594 22.390625 19.796875 C 22.371094 19.703125 22.25 19.574219 22.355469 19.515625 C 22.46875 19.460938 22.574219 19.597656 22.671875 19.667969 C 22.769531 19.738281 22.769531 19.847656 22.769531 19.957031 C 22.769531 20.242188 22.769531 20.527344 22.769531 20.8125 C 22.769531 20.972656 22.753906 21.121094 22.574219 21.1875 C 22.519531 21.207031 22.472656 21.253906 22.5 21.320312 C 22.523438 21.371094 22.574219 21.375 22.625 21.375 C 22.96875 21.375 23.308594 21.375 23.652344 21.371094 C 23.699219 21.371094 23.757812 21.371094 23.773438 21.316406 C 23.789062 21.261719 23.742188 21.230469 23.699219 21.210938 C 23.523438 21.140625 23.511719 21 23.511719 20.835938 C 23.511719 20.0625 23.515625 19.292969 23.5 18.519531 C 23.496094 18.28125 23.554688 18.152344 23.816406 18.1875 C 23.886719 18.195312 23.953125 18.195312 24.019531 18.1875 C 24.234375 18.160156 24.300781 18.269531 24.300781 18.472656 C 24.292969 19.242188 24.300781 20.015625 24.296875 20.789062 C 24.296875 20.949219 24.285156 21.117188 24.105469 21.203125 C 24.0625 21.222656 24.019531 21.257812 24.03125 21.308594 C 24.046875 21.363281 24.101562 21.371094 24.148438 21.371094 C 24.492188 21.375 24.835938 21.375 25.179688 21.375 C 25.234375 21.371094 25.300781 21.371094 25.316406 21.300781 C 25.324219 21.246094 25.28125 21.210938 25.234375 21.195312 C 25.058594 21.144531 25.050781 21.011719 25.050781 20.855469 C 25.046875 20.066406 25.042969 19.273438 25.03125 18.484375 C 25.027344 18.265625 25.089844 18.15625 25.324219 18.195312 C 25.421875 18.210938 25.542969 18.214844 25.539062 18.078125 C 25.535156 17.945312 25.40625 17.972656 25.316406 17.96875 Z M 6.105469 20.789062 C 5.957031 20.933594 5.824219 20.960938 5.667969 20.796875 C 5.445312 20.570312 5.355469 20.300781 5.378906 20.046875 C 5.378906 19.675781 5.433594 19.386719 5.675781 19.15625 C 5.804688 19.03125 5.914062 19.03125 6.046875 19.144531 C 6.457031 19.496094 6.492188 20.410156 6.105469 20.789062 Z M 10.375 20.742188 C 9.910156 20.746094 9.488281 20.304688 9.488281 19.808594 C 9.484375 19.300781 9.886719 18.828125 10.324219 18.824219 C 10.773438 18.820312 11.085938 19.210938 11.085938 19.777344 C 11.082031 20.34375 10.792969 20.738281 10.375 20.742188 Z M 21.304688 20.851562 C 21.183594 20.949219 21.09375 20.9375 20.980469 20.84375 C 20.550781 20.484375 20.511719 19.570312 20.910156 19.179688 C 21.070312 19.023438 21.21875 19.011719 21.371094 19.191406 C 21.5625 19.410156 21.65625 19.664062 21.648438 19.957031 C 21.644531 20.335938 21.574219 20.628906 21.304688 20.851562 Z M 21.304688 20.851562 " fill-opacity="1" fill-rule="nonzero"/><g clip-path="url(#e0774f8bef)"><path fill="#aa6353" d="M 27.710938 14.882812 C 27.539062 14.757812 27.339844 14.648438 27.113281 14.582031 C 25.664062 14.175781 24.1875 13.898438 22.691406 13.730469 C 21.359375 13.578125 20.015625 13.535156 18.671875 13.65625 C 18.308594 13.691406 17.949219 13.742188 17.59375 13.804688 C 17.230469 13.871094 16.867188 13.949219 16.507812 14.03125 C 16.394531 14.058594 16.296875 14.167969 16.164062 14.101562 C 16.167969 14.078125 16.167969 14.054688 16.175781 14.042969 C 16.214844 13.996094 16.25 13.957031 16.292969 13.917969 C 16.863281 13.375 17.535156 13 18.277344 12.761719 C 18.484375 12.695312 18.691406 12.640625 18.898438 12.59375 C 20.503906 12.230469 22.089844 12.449219 23.652344 12.988281 C 24.472656 13.269531 25.269531 13.597656 26.03125 14.015625 C 26.121094 14.066406 26.863281 14.683594 26.945312 14.503906 C 27.015625 14.34375 26.238281 13.820312 26.136719 13.769531 C 25.804688 13.597656 25.476562 13.429688 25.136719 13.277344 C 23.433594 12.507812 21.667969 12.007812 19.773438 12.171875 C 19.542969 12.191406 19.316406 12.222656 19.09375 12.261719 C 17.960938 12.464844 16.933594 12.929688 16.0625 13.746094 C 15.988281 13.8125 15.925781 13.90625 15.78125 13.914062 C 15.910156 13.46875 16.117188 13.078125 16.363281 12.707031 C 17.214844 11.429688 18.265625 10.855469 19.457031 10.796875 C 19.855469 10.777344 20.269531 10.8125 20.699219 10.902344 C 22.21875 11.21875 23.5 12.046875 24.71875 12.976562 C 24.808594 13.042969 25.03125 13.34375 25.128906 13.222656 C 25.238281 13.09375 24.980469 12.839844 24.894531 12.769531 C 24.300781 12.292969 23.664062 11.875 22.996094 11.503906 C 22.179688 11.054688 21.328125 10.699219 20.402344 10.574219 C 20.160156 10.539062 20.050781 10.460938 19.972656 10.21875 C 19.488281 8.691406 18.492188 7.613281 17.011719 7 C 16.0625 6.605469 15.070312 6.53125 14.070312 6.734375 C 12.945312 6.960938 11.980469 7.496094 11.246094 8.386719 C 10.792969 8.933594 10.328125 9.480469 10.21875 10.21875 C 10.183594 10.441406 10.070312 10.5625 9.820312 10.578125 C 9.574219 10.589844 9.332031 10.65625 9.09375 10.726562 C 7.710938 11.132812 6.511719 11.882812 5.378906 12.75 C 5.226562 12.871094 5.117188 12.996094 5.363281 13.148438 C 4.960938 13.347656 4.582031 13.519531 4.214844 13.71875 C 4.089844 13.785156 2.726562 14.425781 2.824219 14.628906 C 2.929688 14.851562 4.207031 14.042969 4.328125 13.976562 C 5.613281 13.3125 6.9375 12.78125 8.375 12.554688 C 9.320312 12.40625 10.253906 12.382812 11.167969 12.554688 C 11.605469 12.636719 12.027344 12.765625 12.4375 12.9375 C 13.089844 13.207031 13.679688 13.582031 14.195312 14.152344 C 14.101562 14.144531 14.054688 14.148438 14.011719 14.132812 C 13.484375 13.949219 12.945312 13.828125 12.398438 13.746094 C 11.761719 13.648438 11.117188 13.609375 10.472656 13.597656 C 9.308594 13.570312 8.15625 13.648438 7 13.804688 C 5.476562 14.007812 4.003906 14.359375 2.53125 14.785156 C 2.421875 14.816406 1.703125 15.269531 1.648438 15.433594 C 1.644531 15.445312 1.601562 15.601562 1.605469 15.605469 C 1.714844 15.707031 2.472656 15.089844 2.609375 15.058594 C 3.945312 14.769531 5.230469 14.371094 6.582031 14.152344 C 8.132812 13.90625 9.6875 13.816406 11.25 13.910156 C 12.132812 13.960938 13.019531 14.082031 13.855469 14.382812 C 14.007812 14.4375 14.140625 14.457031 14.25 14.421875 C 14.332031 14.394531 14.398438 14.335938 14.453125 14.242188 C 14.542969 14.066406 14.871094 14.042969 14.734375 13.714844 C 14.019531 11.980469 12.894531 10.746094 10.925781 10.519531 C 10.695312 10.492188 10.714844 10.40625 10.769531 10.246094 C 10.976562 9.628906 11.300781 9.078125 11.746094 8.613281 C 14.058594 6.203125 18.085938 6.902344 19.371094 10.074219 C 19.390625 10.121094 19.410156 10.167969 19.429688 10.214844 C 19.472656 10.332031 19.488281 10.410156 19.4375 10.460938 C 19.40625 10.496094 19.347656 10.515625 19.246094 10.527344 C 18.539062 10.613281 17.871094 10.839844 17.300781 11.277344 C 16.472656 11.914062 15.921875 12.761719 15.523438 13.71875 C 15.480469 13.816406 15.453125 13.992188 15.539062 14 C 15.757812 14.027344 15.796875 14.222656 15.902344 14.332031 C 15.921875 14.355469 15.949219 14.378906 15.976562 14.402344 C 16.074219 14.476562 16.164062 14.46875 16.292969 14.421875 C 17.152344 14.121094 18.046875 13.96875 18.949219 13.910156 C 20.789062 13.789062 22.605469 14.015625 24.433594 14.265625 C 26.027344 14.484375 27.558594 14.902344 27.640625 15.167969 C 27.667969 15.253906 28.195312 15.566406 28.238281 15.425781 C 28.273438 15.304688 27.789062 14.941406 27.710938 14.882812 Z M 12.132812 11.128906 C 13.347656 11.703125 14.050781 12.726562 14.511719 13.941406 C 14.4375 14.003906 14.410156 13.945312 14.382812 13.917969 C 13.429688 12.945312 12.277344 12.425781 10.980469 12.230469 C 10.808594 12.203125 10.632812 12.183594 10.457031 12.167969 C 8.996094 12.039062 7.601562 12.335938 6.234375 12.820312 C 6.003906 12.902344 5.777344 12.988281 5.546875 13.070312 C 5.867188 12.699219 6.265625 12.453125 6.660156 12.199219 C 7.382812 11.734375 8.132812 11.324219 8.957031 11.070312 C 9.519531 10.898438 10.078125 10.789062 10.636719 10.792969 C 11.136719 10.800781 11.636719 10.898438 12.132812 11.128906 Z M 12.132812 11.128906 " fill-opacity="1" fill-rule="nonzero"/></g><g clip-path="url(#6ae2b6c571)"><path fill="#023adf" d="M 28.035156 18.5 C 27.535156 20.398438 26.675781 22.113281 25.429688 23.628906 C 23.636719 25.8125 21.375 27.285156 18.648438 28.042969 C 18.273438 28.148438 17.890625 28.234375 17.507812 28.3125 C 16.714844 28.46875 15.90625 28.523438 14.746094 28.546875 C 10.789062 28.421875 7.242188 26.753906 4.550781 23.355469 C 3.402344 21.910156 2.621094 20.28125 2.160156 18.496094 C 2.117188 18.335938 2.050781 18.1875 2.304688 18.128906 C 2.535156 18.078125 2.632812 18.152344 2.6875 18.375 C 3.335938 20.945312 4.660156 23.105469 6.644531 24.855469 C 8.089844 26.125 9.75 27.011719 11.605469 27.53125 C 13.796875 28.148438 16.007812 28.191406 18.210938 27.640625 C 21.152344 26.902344 23.550781 25.316406 25.375 22.890625 C 26.371094 21.5625 27.074219 20.097656 27.496094 18.492188 C 27.53125 18.355469 27.488281 18.140625 27.71875 18.109375 C 27.988281 18.078125 28.105469 18.234375 28.035156 18.5 Z M 28.035156 18.5 " fill-opacity="1" fill-rule="nonzero"/></g><g clip-path="url(#c60306483d)"><path fill="#aa6353" d="M 28.390625 15.679688 C 28.375 15.910156 28.183594 15.917969 28.003906 15.910156 C 27.910156 15.910156 27.8125 15.910156 27.796875 15.910156 C 26.105469 15.777344 24.492188 15.644531 22.878906 15.519531 C 21.777344 15.433594 20.679688 15.359375 19.578125 15.273438 C 18.617188 15.203125 17.660156 15.128906 16.703125 15.046875 C 16.53125 15.03125 16.390625 15.078125 16.242188 15.160156 C 15.457031 15.585938 14.671875 15.660156 13.898438 15.128906 C 13.808594 15.070312 13.71875 15.035156 13.605469 15.046875 C 11.042969 15.238281 8.480469 15.429688 5.917969 15.625 C 4.675781 15.722656 3.4375 15.835938 2.195312 15.9375 C 2.042969 15.949219 1.886719 15.976562 1.75 15.882812 C 1.660156 15.820312 1.59375 15.746094 1.605469 15.625 C 1.617188 15.492188 1.695312 15.453125 1.8125 15.433594 C 2.335938 15.328125 2.867188 15.3125 3.398438 15.273438 C 5.105469 15.140625 6.816406 15.035156 8.523438 14.90625 C 10.175781 14.78125 11.824219 14.644531 13.476562 14.511719 C 13.757812 14.488281 13.996094 14.523438 14.246094 14.707031 C 14.671875 15.027344 15.191406 15.0625 15.652344 14.828125 C 16.152344 14.574219 16.640625 14.472656 17.203125 14.53125 C 18.527344 14.660156 19.855469 14.75 21.183594 14.851562 C 22.464844 14.953125 23.746094 15.046875 25.027344 15.148438 C 26.03125 15.226562 27.039062 15.3125 28.042969 15.390625 C 28.238281 15.40625 28.402344 15.457031 28.390625 15.679688 Z M 28.390625 15.679688 " fill-opacity="1" fill-rule="nonzero"/></g><path fill="#023adf" d="M 14.617188 20.753906 C 13.941406 21.398438 12.867188 21.21875 12.511719 20.40625 C 12.296875 19.921875 12.410156 19.5 12.839844 19.1875 C 12.914062 19.132812 12.988281 19.082031 13.0625 19.027344 C 13.058594 19.003906 13.046875 18.984375 13.042969 18.960938 C 12.832031 18.960938 12.625 18.964844 12.417969 18.960938 C 12.328125 18.957031 12.203125 18.976562 12.191406 18.84375 C 12.183594 18.710938 12.304688 18.714844 12.398438 18.714844 C 13.015625 18.722656 13.632812 18.730469 14.25 18.738281 C 14.335938 18.742188 14.445312 18.734375 14.4375 18.859375 C 14.429688 18.976562 14.316406 18.964844 14.234375 18.957031 C 13.828125 18.925781 13.507812 19.066406 13.292969 19.417969 C 13.070312 19.773438 13.121094 20.207031 13.417969 20.488281 C 13.71875 20.773438 14.035156 20.785156 14.421875 20.519531 C 14.519531 20.453125 14.636719 20.375 14.726562 20.476562 C 14.828125 20.59375 14.691406 20.683594 14.617188 20.753906 Z M 14.617188 20.753906 " fill-opacity="1" fill-rule="nonzero"/><path fill="#f58220" d="M 10.863281 7.785156 C 10.867188 7.851562 10.84375 7.894531 10.78125 7.921875 C 10.722656 7.949219 10.671875 7.933594 10.625 7.886719 C 10.164062 7.417969 9.703125 6.953125 9.246094 6.480469 C 9.1875 6.417969 9.15625 6.332031 9.238281 6.253906 C 9.332031 6.160156 9.417969 6.214844 9.488281 6.28125 C 9.921875 6.722656 10.351562 7.167969 10.78125 7.609375 C 10.828125 7.65625 10.871094 7.710938 10.863281 7.785156 Z M 10.863281 7.785156 " fill-opacity="1" fill-rule="nonzero"/><path fill="#f58220" d="M 22.820312 9.210938 C 22.8125 9.320312 22.738281 9.359375 22.65625 9.390625 C 22.105469 9.601562 21.550781 9.8125 21 10.023438 C 20.910156 10.054688 20.804688 10.089844 20.75 9.980469 C 20.691406 9.863281 20.796875 9.804688 20.882812 9.769531 C 21.449219 9.542969 22.015625 9.324219 22.585938 9.105469 C 22.679688 9.070312 22.796875 9.0625 22.820312 9.210938 Z M 22.820312 9.210938 " fill-opacity="1" fill-rule="nonzero"/><path fill="#f58220" d="M 12.785156 6.542969 C 12.679688 6.578125 12.652344 6.496094 12.625 6.425781 C 12.386719 5.855469 12.148438 5.28125 11.917969 4.710938 C 11.882812 4.621094 11.863281 4.511719 11.984375 4.464844 C 12.066406 4.433594 12.136719 4.480469 12.167969 4.554688 C 12.40625 5.136719 12.636719 5.722656 12.871094 6.304688 C 12.878906 6.324219 12.882812 6.339844 12.882812 6.359375 C 12.886719 6.441406 12.871094 6.515625 12.785156 6.542969 Z M 12.785156 6.542969 " fill-opacity="1" fill-rule="nonzero"/><path fill="#f58220" d="M 15.234375 5.847656 C 15.234375 5.949219 15.242188 6.085938 15.097656 6.082031 C 14.960938 6.082031 14.945312 5.949219 14.945312 5.847656 C 14.941406 5.25 14.941406 4.652344 14.945312 4.054688 C 14.945312 3.957031 14.976562 3.851562 15.09375 3.847656 C 15.222656 3.847656 15.230469 3.960938 15.230469 4.054688 C 15.234375 4.359375 15.234375 4.664062 15.234375 4.964844 C 15.234375 5.261719 15.238281 5.554688 15.234375 5.847656 Z M 15.234375 5.847656 " fill-opacity="1" fill-rule="nonzero"/><path fill="#f58220" d="M 18.199219 4.703125 C 17.980469 5.246094 17.761719 5.792969 17.542969 6.339844 C 17.507812 6.425781 17.484375 6.523438 17.351562 6.53125 C 17.21875 6.488281 17.230469 6.382812 17.269531 6.28125 C 17.375 5.996094 17.484375 5.710938 17.59375 5.429688 C 17.699219 5.15625 17.8125 4.882812 17.921875 4.609375 C 17.960938 4.511719 18.007812 4.394531 18.136719 4.4375 C 18.261719 4.480469 18.246094 4.59375 18.199219 4.703125 Z M 18.199219 4.703125 " fill-opacity="1" fill-rule="nonzero"/><path fill="#f58220" d="M 20.824219 6.597656 C 20.445312 6.980469 20.0625 7.359375 19.679688 7.742188 C 19.617188 7.804688 19.5625 7.871094 19.480469 7.882812 C 19.421875 7.886719 19.375 7.875 19.355469 7.824219 C 19.328125 7.769531 19.332031 7.707031 19.371094 7.664062 C 19.453125 7.574219 19.542969 7.484375 19.628906 7.398438 C 19.960938 7.058594 20.292969 6.722656 20.632812 6.390625 C 20.710938 6.308594 20.804688 6.148438 20.933594 6.273438 C 21.074219 6.40625 20.914062 6.507812 20.824219 6.597656 Z M 20.824219 6.597656 " fill-opacity="1" fill-rule="nonzero"/><path fill="#f58220" d="M 9.476562 9.910156 C 9.4375 10.042969 9.316406 10.015625 9.214844 9.972656 C 8.675781 9.765625 8.136719 9.554688 7.601562 9.34375 C 7.546875 9.320312 7.496094 9.292969 7.453125 9.257812 C 7.40625 9.222656 7.378906 9.167969 7.40625 9.105469 C 7.429688 9.046875 7.480469 9.027344 7.566406 9.03125 C 7.609375 9.042969 7.675781 9.0625 7.734375 9.085938 C 8.253906 9.289062 8.773438 9.496094 9.292969 9.699219 C 9.394531 9.738281 9.515625 9.785156 9.476562 9.910156 Z M 9.476562 9.910156 " fill-opacity="1" fill-rule="nonzero"/><path fill="#f58220" d="M 11.277344 2.695312 C 11.378906 2.679688 11.40625 2.742188 11.441406 2.800781 C 11.605469 3.089844 11.714844 3.402344 11.824219 3.714844 C 11.851562 3.800781 11.847656 3.890625 11.738281 3.921875 C 11.65625 3.949219 11.59375 3.910156 11.558594 3.828125 C 11.425781 3.535156 11.289062 3.246094 11.164062 2.949219 C 11.117188 2.835938 11.144531 2.722656 11.277344 2.695312 Z M 11.277344 2.695312 " fill-opacity="1" fill-rule="nonzero"/><path fill="#f58220" d="M 6.855469 8.824219 C 6.835938 8.953125 6.75 8.996094 6.667969 8.96875 C 6.339844 8.847656 6.015625 8.714844 5.691406 8.582031 C 5.632812 8.558594 5.609375 8.503906 5.625 8.441406 C 5.648438 8.367188 5.707031 8.320312 5.777344 8.339844 C 6.132812 8.4375 6.480469 8.5625 6.800781 8.746094 C 6.828125 8.761719 6.839844 8.804688 6.855469 8.824219 Z M 6.855469 8.824219 " fill-opacity="1" fill-rule="nonzero"/><path fill="#f58220" d="M 22.3125 4.996094 C 22.320312 5.097656 22.273438 5.148438 22.226562 5.195312 C 22.03125 5.394531 21.828125 5.59375 21.628906 5.792969 C 21.558594 5.863281 21.472656 5.929688 21.382812 5.847656 C 21.289062 5.761719 21.351562 5.671875 21.421875 5.601562 C 21.632812 5.386719 21.847656 5.171875 22.0625 4.960938 C 22.121094 4.90625 22.191406 4.882812 22.273438 4.898438 C 22.296875 4.902344 22.304688 4.976562 22.3125 4.996094 Z M 22.3125 4.996094 " fill-opacity="1" fill-rule="nonzero"/><path fill="#f58220" d="M 18.8125 2.671875 C 18.910156 2.691406 18.949219 2.761719 18.917969 2.839844 C 18.800781 3.160156 18.671875 3.476562 18.542969 3.792969 C 18.511719 3.875 18.4375 3.898438 18.355469 3.863281 C 18.277344 3.832031 18.261719 3.769531 18.289062 3.699219 C 18.410156 3.390625 18.53125 3.082031 18.660156 2.773438 C 18.683594 2.710938 18.742188 2.671875 18.8125 2.671875 Z M 18.8125 2.671875 " fill-opacity="1" fill-rule="nonzero"/><path fill="#f58220" d="M 24.507812 8.664062 C 24.195312 8.792969 23.878906 8.917969 23.609375 9.023438 C 23.484375 9.039062 23.417969 9.023438 23.394531 8.945312 C 23.375 8.875 23.402344 8.804688 23.46875 8.78125 C 23.785156 8.65625 24.105469 8.535156 24.425781 8.417969 C 24.492188 8.394531 24.558594 8.429688 24.585938 8.5 C 24.609375 8.574219 24.574219 8.636719 24.507812 8.664062 Z M 24.507812 8.664062 " fill-opacity="1" fill-rule="nonzero"/><path fill="#f58220" d="M 8.871094 5.757812 C 8.847656 5.890625 8.753906 5.933594 8.667969 5.863281 C 8.386719 5.632812 8.128906 5.382812 7.90625 5.097656 C 7.871094 5.054688 7.875 4.988281 7.921875 4.941406 C 7.976562 4.882812 8.054688 4.886719 8.101562 4.933594 C 8.355469 5.175781 8.597656 5.429688 8.84375 5.679688 C 8.863281 5.699219 8.863281 5.734375 8.871094 5.757812 Z M 8.871094 5.757812 " fill-opacity="1" fill-rule="nonzero"/><path fill="#f58220" d="M 15.230469 2.601562 C 15.230469 2.761719 15.234375 2.925781 15.230469 3.085938 C 15.226562 3.167969 15.191406 3.234375 15.097656 3.242188 C 15.003906 3.246094 14.957031 3.175781 14.953125 3.097656 C 14.933594 2.765625 14.921875 2.4375 14.964844 2.105469 C 14.976562 2.023438 15.023438 1.964844 15.117188 1.976562 C 15.199219 1.988281 15.226562 2.050781 15.230469 2.121094 C 15.234375 2.28125 15.230469 2.441406 15.230469 2.601562 Z M 15.230469 2.601562 " fill-opacity="1" fill-rule="nonzero"/><g clip-path="url(#02b519cf29)"><path fill="#f58220" d="M 14.929688 0.871094 C 14.980469 0.722656 14.851562 0.476562 15.101562 0.480469 C 15.34375 0.480469 15.253906 0.71875 15.25 0.859375 C 15.25 1.011719 15.332031 1.269531 15.097656 1.269531 C 14.84375 1.269531 14.992188 1 14.929688 0.871094 Z M 14.929688 0.871094 " fill-opacity="1" fill-rule="nonzero"/></g><path fill="#f58220" d="M 23.355469 4.003906 C 23.355469 4.140625 22.980469 4.496094 22.816406 4.492188 C 22.734375 4.457031 22.664062 4.390625 22.753906 4.269531 C 22.863281 4.121094 22.992188 3.976562 23.15625 3.875 C 23.28125 3.800781 23.351562 3.867188 23.355469 4.003906 Z M 23.355469 4.003906 " fill-opacity="1" fill-rule="nonzero"/><path fill="#f58220" d="M 7.464844 4.382812 C 7.449219 4.496094 7.34375 4.535156 7.265625 4.476562 C 7.101562 4.363281 6.960938 4.226562 6.835938 4.070312 C 6.761719 3.980469 6.832031 3.890625 6.953125 3.878906 C 7.085938 3.867188 7.460938 4.230469 7.464844 4.382812 Z M 7.464844 4.382812 " fill-opacity="1" fill-rule="nonzero"/><path fill="#f58220" d="M 11.085938 1.902344 C 11.089844 2.007812 11.0625 2.054688 11.003906 2.078125 C 10.945312 2.105469 10.878906 2.09375 10.851562 2.042969 C 10.753906 1.863281 10.652344 1.679688 10.636719 1.46875 C 10.628906 1.398438 10.660156 1.355469 10.722656 1.335938 C 10.789062 1.308594 10.839844 1.328125 10.867188 1.394531 C 10.949219 1.574219 11.023438 1.757812 11.085938 1.902344 Z M 11.085938 1.902344 " fill-opacity="1" fill-rule="nonzero"/><path fill="#f58220" d="M 19.035156 1.84375 C 19.054688 1.671875 19.144531 1.515625 19.230469 1.355469 C 19.261719 1.300781 19.320312 1.292969 19.378906 1.3125 C 19.445312 1.335938 19.464844 1.394531 19.453125 1.449219 C 19.421875 1.628906 19.363281 1.800781 19.277344 1.957031 C 19.242188 2.019531 19.179688 2.054688 19.105469 2.027344 C 19.03125 1.996094 19.035156 1.921875 19.035156 1.84375 Z M 19.035156 1.84375 " fill-opacity="1" fill-rule="nonzero"/><path fill="#f58220" d="M 4.964844 8.179688 C 4.9375 8.253906 4.871094 8.28125 4.804688 8.257812 C 4.644531 8.195312 4.488281 8.128906 4.335938 8.050781 C 4.277344 8.019531 4.242188 7.953125 4.277344 7.878906 C 4.304688 7.820312 4.359375 7.808594 4.441406 7.804688 C 4.609375 7.839844 4.777344 7.925781 4.9375 8.023438 C 4.992188 8.054688 4.984375 8.125 4.964844 8.179688 Z M 4.964844 8.179688 " fill-opacity="1" fill-rule="nonzero"/><path fill="#f58220" d="M 25.925781 8.007812 C 25.859375 8.238281 25.621094 8.226562 25.445312 8.296875 C 25.371094 8.324219 25.261719 8.292969 25.277344 8.203125 C 25.332031 7.921875 25.617188 8.027344 25.746094 7.925781 C 25.855469 7.914062 25.945312 7.941406 25.925781 8.007812 Z M 25.925781 8.007812 " fill-opacity="1" fill-rule="nonzero"/><path fill="#aa6353" d="M 8.859375 11.625 C 10.066406 11.355469 11.628906 11.324219 12.691406 12.035156 C 12.761719 12.082031 12.832031 12.136719 12.898438 12.195312 C 12.832031 12.136719 12.761719 12.085938 12.6875 12.035156 C 11.617188 11.332031 10.070312 11.375 8.859375 11.625 Z M 8.859375 11.625 " fill-opacity="1" fill-rule="nonzero"/><path fill="#aa6353" d="M 17.492188 12.378906 C 18.203125 11.914062 19.0625 11.683594 19.90625 11.628906 C 20.507812 11.597656 21.117188 11.667969 21.703125 11.820312 C 21.792969 11.84375 21.925781 11.882812 22.019531 11.910156 C 22.070312 11.929688 22.195312 11.972656 22.25 11.992188 C 22.34375 12.023438 22.46875 12.074219 22.558594 12.109375 C 21.949219 11.867188 21.300781 11.695312 20.644531 11.648438 C 19.558594 11.566406 18.417969 11.792969 17.492188 12.375 Z M 17.492188 12.378906 " fill-opacity="1" fill-rule="nonzero"/><path fill="#aa6353" d="M 24.59375 13.742188 C 23.46875 13.554688 22.332031 13.402344 21.195312 13.3125 C 20.203125 13.234375 19.195312 13.175781 18.203125 13.320312 C 18.0625 13.339844 17.921875 13.371094 17.785156 13.40625 C 17.921875 13.367188 18.0625 13.339844 18.203125 13.316406 C 19.195312 13.167969 20.203125 13.226562 21.195312 13.300781 C 22.335938 13.394531 23.472656 13.542969 24.59375 13.742188 Z M 24.59375 13.742188 " fill-opacity="1" fill-rule="nonzero"/><path fill="#aa6353" d="M 26.1875 15.078125 C 23.648438 14.800781 21.089844 14.492188 18.535156 14.359375 C 18.417969 14.355469 18.210938 14.355469 18.089844 14.347656 C 18.214844 14.351562 18.417969 14.355469 18.535156 14.359375 C 18.851562 14.371094 19.296875 14.394531 19.613281 14.417969 C 21.808594 14.578125 24.003906 14.820312 26.1875 15.078125 Z M 26.1875 15.078125 " fill-opacity="1" fill-rule="nonzero"/><path fill="#aa6353" d="M 6.238281 13.40625 C 7.527344 13.199219 8.832031 13.058594 10.140625 13.054688 C 10.792969 13.0625 11.453125 13.085938 12.082031 13.265625 C 12.207031 13.304688 12.335938 13.347656 12.449219 13.40625 C 12.332031 13.351562 12.207031 13.304688 12.082031 13.269531 C 11.453125 13.09375 10.789062 13.070312 10.140625 13.066406 C 8.832031 13.070312 7.527344 13.210938 6.238281 13.40625 Z M 6.238281 13.40625 " fill-opacity="1" fill-rule="nonzero"/><path fill="#aa6353" d="M 5.546875 14.621094 C 7.652344 14.496094 9.785156 14.382812 11.890625 14.351562 L 12.316406 14.347656 C 10.0625 14.375 7.796875 14.507812 5.546875 14.621094 Z M 5.546875 14.621094 " fill-opacity="1" fill-rule="nonzero"/><path stroke-linecap="butt" transform="matrix(0.0114416, 0, 0, 0.0114416, 0.55943, 0.21987)" fill-opacity="1" fill="#ce7d6f" fill-rule="nonzero" stroke-linejoin="miter" d="M 1375.802401 1255.601933 C 1375.802401 1291.449806 1307.17933 1311.592896 1271.331457 1311.592896 C 1235.483584 1311.592896 1176.761354 1290.766989 1176.761354 1254.919116 C 1176.761354 1219.071243 1235.483584 1181.857737 1271.331457 1181.857737 C 1307.17933 1181.857737 1375.802401 1219.75406 1375.802401 1255.601933 Z M 1375.802401 1255.601933 " stroke="#af6c53" stroke-width="1" stroke-opacity="1" stroke-miterlimit="10"/></svg>