<svg xmlns="http://www.w3.org/2000/svg" xmlns:xlink="http://www.w3.org/1999/xlink" width="200" zoomAndPan="magnify" viewBox="0 0 150 74.999997" height="100" preserveAspectRatio="xMidYMid meet" version="1.0"><defs><clipPath id="978fb10baf"><path d="M 39.136719 31 L 74 31 L 74 41 L 39.136719 41 Z M 39.136719 31 " clip-rule="nonzero"/></clipPath><clipPath id="414fdd9701"><path d="M 39.136719 16 L 111 16 L 111 41 L 39.136719 41 Z M 39.136719 16 " clip-rule="nonzero"/></clipPath><clipPath id="9365f87a92"><path d="M 39.136719 37 L 111 37 L 111 42 L 39.136719 42 Z M 39.136719 37 " clip-rule="nonzero"/></clipPath></defs><g clip-path="url(#978fb10baf)"><path fill="#d88f86" d="M 60.238281 31.621094 C 55.683594 31.621094 47.753906 35.019531 43.023438 37.671875 C 42.566406 38.5 41.648438 39.078125 40.699219 39.089844 C 39.722656 39.75 39.144531 40.277344 39.144531 40.550781 C 39.144531 41.921875 50.65625 39.488281 57.445312 39.488281 C 64.234375 39.488281 73.144531 38.4375 73.144531 37.070312 C 73.144531 35.699219 67.027344 31.621094 60.238281 31.621094 Z M 60.238281 31.621094 " fill-opacity="1" fill-rule="nonzero"/></g><path fill="#d88f86" d="M 62.960938 27.394531 C 56.957031 27.394531 50.625 31.527344 49.238281 33.429688 C 49.246094 33.449219 49.25 33.464844 49.257812 33.484375 C 49.289062 33.71875 49.320312 33.953125 49.351562 34.1875 C 49.351562 34.238281 49.347656 34.289062 49.347656 34.339844 C 50.566406 34.226562 54.609375 31.621094 60.238281 31.621094 C 67.027344 31.621094 73.902344 37.492188 73.902344 36.125 C 73.902344 34.753906 69.75 27.394531 62.960938 27.394531 Z M 62.960938 27.394531 " fill-opacity="1" fill-rule="nonzero"/><path fill="#d88f86" d="M 108.414062 38.089844 C 107.363281 38.089844 106.507812 37.480469 106.078125 36.613281 C 105.484375 36.453125 105.007812 36.125 104.648438 35.625 C 104.539062 35.640625 104.433594 35.652344 104.328125 35.652344 C 102.867188 35.652344 101.785156 34.472656 101.695312 33.066406 C 97.0625 29.984375 91.742188 27.152344 88.46875 27.152344 C 81.675781 27.152344 74.46875 32.4375 74.46875 33.804688 C 74.46875 35.175781 78.738281 39.488281 85.527344 39.488281 C 92.316406 39.488281 110.851562 42.066406 110.851562 40.699219 C 110.855469 40.363281 109.921875 39.382812 108.414062 38.089844 Z M 108.414062 38.089844 " fill-opacity="1" fill-rule="nonzero"/><path fill="#f58220" d="M 87.261719 26.707031 C 87.226562 26.355469 86.792969 26.03125 86.714844 25.691406 C 85.640625 21.160156 80.863281 17.742188 75.128906 17.742188 C 68.609375 17.742188 63.320312 22.164062 63.320312 27.621094 C 64.667969 27.632812 66.003906 27.898438 67.328125 28.519531 C 70.246094 29.894531 72.054688 32.234375 73.289062 35.050781 C 73.699219 35.339844 74.003906 35.71875 74.199219 36.179688 C 74.503906 36.011719 74.828125 35.910156 75.171875 35.871094 C 75.230469 35.855469 75.289062 35.84375 75.347656 35.84375 C 75.398438 35.84375 75.449219 35.851562 75.496094 35.863281 C 75.796875 35.871094 76.089844 35.929688 76.371094 36.042969 C 76.464844 35.5 76.753906 35.011719 77.152344 34.636719 C 77.238281 33.773438 77.820312 33.027344 78.582031 32.628906 C 78.800781 32.203125 79.109375 31.859375 79.503906 31.59375 C 81.621094 28.976562 84.136719 27.769531 86.941406 27.628906 L 86.941406 27.621094 C 86.941406 27.320312 87.296875 27 87.261719 26.707031 Z M 87.261719 26.707031 " fill-opacity="1" fill-rule="nonzero"/><path fill="#0041ff" d="M 102.625 46.828125 C 102.472656 46.820312 102.320312 46.824219 102.167969 46.824219 C 94.179688 46.824219 86.191406 46.820312 78.203125 46.8125 C 77.851562 46.8125 77.550781 46.769531 77.214844 46.542969 C 75.832031 45.621094 74.5625 44.554688 73.316406 43.472656 C 72.273438 42.570312 71.121094 42.667969 69.929688 42.683594 C 69.765625 42.683594 69.613281 42.738281 69.589844 42.921875 C 69.558594 43.164062 69.738281 43.234375 69.929688 43.242188 C 70.347656 43.253906 70.757812 43.359375 71.074219 43.613281 C 72.296875 44.609375 73.492188 45.636719 74.886719 46.808594 L 72.757812 46.808594 C 64.386719 46.808594 56.015625 46.808594 47.648438 46.8125 C 47.335938 46.8125 46.773438 46.605469 46.789062 47.132812 C 46.804688 47.632812 47.355469 47.417969 47.667969 47.421875 C 49.378906 47.445312 51.089844 47.433594 52.800781 47.4375 C 55.015625 47.4375 55.015625 47.4375 54.914062 49.628906 L 54.914062 49.703125 C 54.9375 50.160156 54.746094 50.253906 54.363281 50.03125 C 53.222656 49.378906 51.96875 49.207031 50.683594 49.144531 C 48.992188 49.054688 47.488281 50.117188 47.257812 51.570312 C 46.855469 54.125 49.023438 55.921875 51.644531 55.203125 C 53.410156 54.714844 54.15625 53.328125 53.859375 51.484375 C 53.835938 51.335938 53.746094 51.164062 53.917969 51.078125 C 54.007812 51.035156 54.164062 51.089844 54.269531 51.140625 C 54.566406 51.292969 54.890625 51.464844 54.894531 51.847656 C 54.914062 52.816406 54.910156 53.785156 54.886719 54.753906 C 54.878906 55.070312 54.722656 55.335938 54.390625 55.46875 C 54.25 55.523438 54.117188 55.628906 54.195312 55.816406 C 54.253906 55.957031 54.398438 55.957031 54.523438 55.960938 C 55.441406 55.960938 56.359375 55.960938 57.28125 55.960938 C 57.402344 55.960938 57.550781 55.96875 57.601562 55.820312 C 57.648438 55.667969 57.535156 55.574219 57.421875 55.527344 C 56.960938 55.324219 56.929688 54.9375 56.929688 54.503906 C 56.933594 52.386719 56.945312 50.269531 56.90625 48.152344 C 56.894531 47.5625 57.097656 47.414062 57.652344 47.421875 C 59.644531 47.449219 61.632812 47.429688 63.625 47.433594 C 63.800781 47.433594 63.992188 47.40625 64.15625 47.449219 C 64.753906 47.613281 64.527344 48.117188 64.503906 48.472656 C 64.476562 48.949219 64.136719 48.753906 63.882812 48.652344 C 63.15625 48.363281 62.40625 48.285156 61.628906 48.328125 C 60.105469 48.410156 58.804688 49.339844 58.34375 50.679688 C 57.902344 51.949219 58.257812 53.367188 59.367188 54.273438 C 60.738281 55.394531 62.308594 55.203125 63.878906 54.789062 C 64.0625 54.742188 64.25 54.484375 64.421875 54.699219 C 64.582031 54.902344 64.410156 55.132812 64.285156 55.320312 C 64.230469 55.402344 64.136719 55.457031 64.054688 55.515625 C 63.949219 55.589844 63.820312 55.660156 63.867188 55.808594 C 63.914062 55.957031 64.0625 55.957031 64.1875 55.957031 C 65.082031 55.960938 65.972656 55.957031 66.867188 55.953125 C 66.996094 55.953125 67.140625 55.910156 67.160156 55.769531 C 67.167969 55.691406 67.09375 55.554688 67.023438 55.523438 C 66.523438 55.324219 66.578125 54.898438 66.578125 54.492188 C 66.566406 52.398438 66.570312 50.304688 66.53125 48.210938 C 66.519531 47.601562 66.726562 47.414062 67.324219 47.421875 C 69.722656 47.445312 72.121094 47.445312 74.519531 47.421875 C 75.101562 47.414062 75.261719 47.628906 75.253906 48.1875 C 75.230469 50.203125 75.246094 52.21875 75.246094 54.234375 C 75.246094 54.757812 75.230469 55.269531 74.628906 55.503906 C 74.507812 55.550781 74.402344 55.648438 74.445312 55.796875 C 74.488281 55.9375 74.628906 55.957031 74.761719 55.957031 C 75.730469 55.957031 76.699219 55.957031 77.671875 55.953125 C 77.800781 55.953125 77.933594 55.925781 77.984375 55.785156 C 78.035156 55.648438 77.976562 55.511719 77.851562 55.472656 C 77.222656 55.285156 77.273438 54.765625 77.269531 54.285156 C 77.253906 52.296875 77.269531 50.304688 77.234375 48.316406 C 77.222656 47.691406 77.414062 47.457031 78.0625 47.46875 C 79.949219 47.503906 81.839844 47.480469 83.726562 47.484375 C 84.902344 47.484375 85.019531 47.632812 84.894531 48.8125 C 84.855469 49.175781 84.726562 49.3125 84.359375 49.238281 C 83.648438 49.097656 82.9375 49.140625 82.226562 49.222656 C 80.773438 49.386719 79.683594 50.128906 79.261719 51.511719 C 78.792969 53.039062 79.332031 54.457031 80.292969 55.65625 C 80.699219 56.167969 81.355469 55.933594 81.839844 55.625 C 82.363281 55.289062 81.886719 54.960938 81.726562 54.660156 C 81.308594 53.882812 81.085938 53.050781 81.109375 52.167969 C 81.15625 50.515625 82.621094 49.480469 84.195312 49.945312 C 84.710938 50.097656 84.953125 50.359375 84.9375 50.925781 C 84.902344 52.074219 84.921875 53.222656 84.929688 54.371094 C 84.933594 54.832031 84.863281 55.234375 84.417969 55.476562 C 84.308594 55.535156 84.183594 55.625 84.214844 55.769531 C 84.257812 55.957031 84.433594 55.953125 84.585938 55.953125 C 85.480469 55.953125 86.371094 55.953125 87.265625 55.953125 C 87.414062 55.953125 87.597656 55.960938 87.628906 55.761719 C 87.652344 55.621094 87.546875 55.507812 87.417969 55.480469 C 86.902344 55.371094 86.933594 54.980469 86.929688 54.589844 C 86.921875 52.445312 86.925781 50.304688 86.894531 48.160156 C 86.882812 47.597656 87.066406 47.402344 87.640625 47.410156 C 89.65625 47.441406 91.671875 47.425781 93.6875 47.425781 C 95.871094 47.425781 95.871094 47.425781 95.808594 49.621094 C 95.808594 49.671875 95.804688 49.722656 95.804688 49.773438 C 95.804688 50.183594 95.753906 50.332031 95.285156 50.066406 C 93.816406 49.242188 92.203125 49.003906 90.554688 49.28125 C 88.613281 49.609375 87.613281 51.535156 88.347656 53.355469 C 88.804688 54.484375 89.84375 55.339844 91.945312 55.351562 C 93.929688 55.363281 95.070312 53.097656 94.789062 51.726562 C 94.738281 51.472656 94.417969 51.125 94.703125 50.976562 C 95.003906 50.824219 95.289062 51.191406 95.550781 51.382812 C 95.804688 51.570312 95.8125 51.859375 95.808594 52.148438 C 95.804688 52.914062 95.804688 53.683594 95.808594 54.449219 C 95.808594 54.875 95.765625 55.265625 95.285156 55.449219 C 95.140625 55.503906 95.015625 55.621094 95.09375 55.804688 C 95.148438 55.945312 95.289062 55.949219 95.417969 55.949219 C 96.335938 55.949219 97.257812 55.949219 98.175781 55.945312 C 98.296875 55.945312 98.449219 55.945312 98.492188 55.796875 C 98.535156 55.648438 98.417969 55.558594 98.300781 55.511719 C 97.832031 55.324219 97.792969 54.945312 97.796875 54.507812 C 97.800781 52.441406 97.804688 50.375 97.769531 48.304688 C 97.753906 47.664062 97.914062 47.320312 98.617188 47.417969 C 98.796875 47.441406 98.972656 47.441406 99.152344 47.417969 C 99.734375 47.347656 99.90625 47.632812 99.90625 48.175781 C 99.890625 50.242188 99.90625 52.3125 99.898438 54.378906 C 99.898438 54.808594 99.863281 55.257812 99.386719 55.484375 C 99.265625 55.542969 99.152344 55.636719 99.1875 55.777344 C 99.226562 55.917969 99.371094 55.941406 99.5 55.941406 C 100.421875 55.945312 101.339844 55.945312 102.257812 55.945312 C 102.410156 55.945312 102.585938 55.941406 102.625 55.746094 C 102.652344 55.605469 102.539062 55.507812 102.410156 55.472656 C 101.941406 55.332031 101.914062 54.972656 101.914062 54.5625 C 101.90625 52.445312 101.898438 50.324219 101.859375 48.210938 C 101.851562 47.621094 102.023438 47.332031 102.652344 47.433594 C 102.90625 47.476562 103.234375 47.484375 103.222656 47.128906 C 103.214844 46.769531 102.871094 46.835938 102.625 46.828125 Z M 51.1875 54.386719 C 50.796875 54.773438 50.4375 54.835938 50.015625 54.40625 C 49.421875 53.792969 49.1875 53.074219 49.246094 52.398438 C 49.25 51.402344 49.394531 50.621094 50.039062 50.007812 C 50.382812 49.679688 50.683594 49.679688 51.039062 49.984375 C 52.140625 50.921875 52.226562 53.363281 51.1875 54.386719 Z M 62.621094 54.257812 C 61.375 54.269531 60.25 53.089844 60.246094 51.757812 C 60.238281 50.390625 61.3125 49.128906 62.492188 49.117188 C 63.691406 49.105469 64.53125 50.15625 64.527344 51.671875 C 64.519531 53.183594 63.742188 54.246094 62.621094 54.257812 Z M 91.886719 54.546875 C 91.566406 54.8125 91.320312 54.78125 91.015625 54.527344 C 89.871094 53.570312 89.769531 51.121094 90.832031 50.078125 C 91.261719 49.652344 91.652344 49.628906 92.0625 50.105469 C 92.574219 50.6875 92.824219 51.371094 92.804688 52.148438 C 92.800781 53.167969 92.605469 53.953125 91.886719 54.546875 Z M 91.886719 54.546875 " fill-opacity="1" fill-rule="nonzero"/><g clip-path="url(#414fdd9701)"><path fill="#aa6353" d="M 109.039062 38.570312 C 108.582031 38.238281 108.046875 37.9375 107.433594 37.761719 C 103.554688 36.671875 99.601562 35.933594 95.605469 35.480469 C 92.03125 35.078125 88.4375 34.957031 84.835938 35.289062 C 83.863281 35.375 82.90625 35.515625 81.949219 35.6875 C 80.976562 35.859375 80.011719 36.066406 79.046875 36.292969 C 78.742188 36.363281 78.480469 36.652344 78.128906 36.476562 C 78.136719 36.414062 78.132812 36.351562 78.160156 36.316406 C 78.253906 36.199219 78.359375 36.085938 78.46875 35.980469 C 79.992188 34.53125 81.792969 33.53125 83.777344 32.890625 C 84.332031 32.710938 84.886719 32.5625 85.441406 32.4375 C 89.738281 31.464844 93.988281 32.054688 98.175781 33.496094 C 100.363281 34.246094 102.503906 35.128906 104.539062 36.246094 C 104.785156 36.378906 106.773438 38.039062 106.988281 37.554688 C 107.175781 37.128906 105.09375 35.722656 104.820312 35.585938 C 103.9375 35.132812 103.050781 34.679688 102.144531 34.273438 C 97.582031 32.214844 92.859375 30.867188 87.785156 31.308594 C 87.167969 31.363281 86.5625 31.445312 85.96875 31.550781 C 82.933594 32.09375 80.1875 33.335938 77.847656 35.527344 C 77.65625 35.707031 77.484375 35.949219 77.097656 35.976562 C 77.449219 34.78125 78 33.734375 78.660156 32.742188 C 80.9375 29.324219 83.753906 27.789062 86.941406 27.628906 C 88.007812 27.574219 89.117188 27.675781 90.261719 27.910156 C 94.335938 28.753906 97.765625 30.976562 101.027344 33.460938 C 101.265625 33.640625 101.859375 34.445312 102.128906 34.121094 C 102.417969 33.78125 101.730469 33.09375 101.496094 32.90625 C 99.902344 31.628906 98.199219 30.511719 96.414062 29.523438 C 94.230469 28.320312 91.953125 27.371094 89.472656 27.027344 C 88.820312 26.9375 88.523438 26.726562 88.320312 26.082031 C 87.027344 21.988281 84.363281 19.109375 80.394531 17.464844 C 77.855469 16.40625 75.199219 16.210938 72.515625 16.75 C 69.5 17.351562 66.921875 18.789062 64.949219 21.175781 C 63.742188 22.632812 62.503906 24.097656 62.203125 26.078125 C 62.109375 26.679688 61.8125 26.996094 61.136719 27.039062 C 60.484375 27.078125 59.828125 27.253906 59.195312 27.441406 C 55.492188 28.53125 52.285156 30.539062 49.25 32.863281 C 48.835938 33.175781 48.546875 33.511719 49.207031 33.925781 C 48.128906 34.453125 47.113281 34.921875 46.128906 35.449219 C 45.792969 35.628906 42.144531 37.34375 42.402344 37.886719 C 42.6875 38.484375 46.109375 36.316406 46.4375 36.144531 C 49.871094 34.367188 53.421875 32.941406 57.269531 32.332031 C 59.804688 31.933594 62.304688 31.875 64.75 32.335938 C 65.917969 32.558594 67.050781 32.898438 68.148438 33.355469 C 69.894531 34.082031 71.472656 35.082031 72.851562 36.613281 C 72.597656 36.589844 72.472656 36.597656 72.363281 36.558594 C 70.949219 36.070312 69.507812 35.742188 68.046875 35.523438 C 66.339844 35.269531 64.617188 35.160156 62.882812 35.121094 C 59.769531 35.050781 56.679688 35.261719 53.582031 35.679688 C 49.507812 36.226562 45.566406 37.167969 41.621094 38.304688 C 41.332031 38.386719 39.410156 39.605469 39.261719 40.042969 C 39.25 40.078125 39.132812 40.488281 39.148438 40.5 C 39.433594 40.777344 41.46875 39.121094 41.832031 39.042969 C 45.40625 38.257812 48.851562 37.195312 52.472656 36.617188 C 56.617188 35.953125 60.785156 35.714844 64.96875 35.960938 C 67.332031 36.097656 69.699219 36.417969 71.945312 37.230469 C 72.351562 37.378906 72.707031 37.429688 73 37.335938 C 73.21875 37.261719 73.398438 37.109375 73.539062 36.847656 C 73.785156 36.382812 74.664062 36.316406 74.300781 35.4375 C 72.378906 30.800781 69.367188 27.488281 64.09375 26.886719 C 63.480469 26.816406 63.53125 26.582031 63.679688 26.152344 C 64.238281 24.503906 65.105469 23.027344 66.296875 21.785156 C 72.484375 15.332031 83.269531 17.199219 86.714844 25.6875 C 86.765625 25.816406 86.816406 25.945312 86.863281 26.074219 C 86.976562 26.378906 87.019531 26.59375 86.890625 26.730469 C 86.804688 26.820312 86.644531 26.878906 86.378906 26.910156 C 84.484375 27.140625 82.695312 27.742188 81.171875 28.917969 C 78.953125 30.625 77.472656 32.890625 76.40625 35.453125 C 76.296875 35.714844 76.222656 36.183594 76.449219 36.210938 C 77.03125 36.273438 77.144531 36.800781 77.417969 37.09375 C 77.480469 37.160156 77.546875 37.222656 77.621094 37.277344 C 77.886719 37.480469 78.121094 37.457031 78.464844 37.339844 C 80.765625 36.53125 83.164062 36.117188 85.578125 35.960938 C 90.507812 35.644531 95.371094 36.242188 100.265625 36.914062 C 104.527344 37.496094 108.628906 38.617188 108.847656 39.328125 C 108.921875 39.566406 110.335938 40.394531 110.449219 40.027344 C 110.550781 39.699219 109.25 38.726562 109.039062 38.570312 Z M 67.328125 28.523438 C 70.585938 30.054688 72.460938 32.792969 73.699219 36.042969 C 73.496094 36.214844 73.421875 36.058594 73.351562 35.984375 C 70.804688 33.378906 67.714844 31.996094 64.246094 31.464844 C 63.785156 31.394531 63.316406 31.335938 62.84375 31.292969 C 58.929688 30.949219 55.195312 31.746094 51.535156 33.046875 C 50.921875 33.261719 50.308594 33.492188 49.695312 33.714844 C 50.550781 32.726562 51.625 32.058594 52.675781 31.378906 C 54.609375 30.140625 56.625 29.042969 58.832031 28.363281 C 60.328125 27.898438 61.828125 27.605469 63.320312 27.621094 C 64.667969 27.636719 66.003906 27.898438 67.328125 28.523438 Z M 67.328125 28.523438 " fill-opacity="1" fill-rule="nonzero"/></g><path fill="#0041ff" d="M 109.90625 48.253906 C 108.570312 53.335938 106.269531 57.925781 102.933594 61.984375 C 98.125 67.832031 92.074219 71.769531 84.777344 73.800781 C 83.769531 74.082031 82.75 74.316406 81.726562 74.523438 C 79.59375 74.949219 77.433594 75.089844 74.324219 75.148438 C 63.734375 74.8125 54.234375 70.347656 47.027344 61.253906 C 43.960938 57.386719 41.859375 53.023438 40.628906 48.242188 C 40.515625 47.8125 40.332031 47.414062 41.019531 47.261719 C 41.636719 47.125 41.890625 47.316406 42.042969 47.917969 C 43.777344 54.796875 47.324219 60.582031 52.640625 65.265625 C 56.503906 68.671875 60.945312 71.046875 65.914062 72.4375 C 71.789062 74.082031 77.707031 74.199219 83.609375 72.71875 C 91.476562 70.75 97.894531 66.503906 102.785156 60.003906 C 105.453125 56.457031 107.335938 52.523438 108.46875 48.230469 C 108.5625 47.871094 108.441406 47.285156 109.058594 47.210938 C 109.785156 47.121094 110.09375 47.539062 109.90625 48.253906 Z M 109.90625 48.253906 " fill-opacity="1" fill-rule="nonzero"/><g clip-path="url(#9365f87a92)"><path fill="#aa6353" d="M 110.855469 40.699219 C 110.816406 41.320312 110.308594 41.339844 109.824219 41.324219 C 109.570312 41.316406 109.316406 41.324219 109.273438 41.324219 C 104.742188 40.960938 100.421875 40.609375 96.105469 40.273438 C 93.15625 40.042969 90.207031 39.839844 87.261719 39.617188 C 84.695312 39.421875 82.128906 39.226562 79.566406 39.007812 C 79.101562 38.96875 78.726562 39.09375 78.332031 39.308594 C 76.230469 40.457031 74.132812 40.648438 72.058594 39.230469 C 71.820312 39.066406 71.574219 38.980469 71.269531 39.003906 C 64.414062 39.523438 57.550781 40.027344 50.691406 40.558594 C 47.367188 40.8125 44.046875 41.117188 40.71875 41.386719 C 40.320312 41.421875 39.898438 41.492188 39.53125 41.242188 C 39.289062 41.082031 39.109375 40.882812 39.140625 40.550781 C 39.171875 40.199219 39.386719 40.097656 39.695312 40.039062 C 41.097656 39.761719 42.527344 39.722656 43.945312 39.613281 C 48.519531 39.261719 53.09375 38.972656 57.667969 38.632812 C 62.089844 38.300781 66.507812 37.933594 70.921875 37.574219 C 71.679688 37.511719 72.320312 37.605469 72.984375 38.097656 C 74.128906 38.953125 75.519531 39.046875 76.75 38.421875 C 78.09375 37.738281 79.402344 37.472656 80.902344 37.625 C 84.449219 37.972656 88.011719 38.210938 91.566406 38.488281 C 94.996094 38.757812 98.425781 39.011719 101.855469 39.28125 C 104.546875 39.492188 107.238281 39.71875 109.929688 39.929688 C 110.445312 39.96875 110.886719 40.109375 110.855469 40.699219 Z M 110.855469 40.699219 " fill-opacity="1" fill-rule="nonzero"/></g><path fill="#0041ff" d="M 73.980469 54.292969 C 72.167969 56.011719 69.296875 55.535156 68.34375 53.359375 C 67.769531 52.058594 68.078125 50.929688 69.226562 50.089844 C 69.425781 49.945312 69.625 49.804688 69.824219 49.664062 C 69.804688 49.605469 69.78125 49.546875 69.761719 49.488281 C 69.207031 49.488281 68.652344 49.496094 68.09375 49.484375 C 67.847656 49.480469 67.515625 49.523438 67.492188 49.175781 C 67.46875 48.816406 67.792969 48.824219 68.046875 48.828125 C 69.699219 48.84375 71.351562 48.867188 73.003906 48.894531 C 73.230469 48.898438 73.523438 48.882812 73.5 49.210938 C 73.476562 49.53125 73.179688 49.496094 72.960938 49.480469 C 71.871094 49.394531 71.015625 49.769531 70.433594 50.710938 C 69.839844 51.664062 69.980469 52.828125 70.769531 53.574219 C 71.574219 54.339844 72.425781 54.371094 73.453125 53.660156 C 73.714844 53.480469 74.03125 53.269531 74.269531 53.542969 C 74.550781 53.863281 74.183594 54.097656 73.980469 54.292969 Z M 73.980469 54.292969 " fill-opacity="1" fill-rule="nonzero"/><path fill="#f58220" d="M 63.925781 19.558594 C 63.945312 19.738281 63.875 19.859375 63.710938 19.929688 C 63.554688 20 63.414062 19.960938 63.292969 19.839844 C 62.0625 18.585938 60.828125 17.335938 59.605469 16.074219 C 59.445312 15.910156 59.359375 15.671875 59.578125 15.460938 C 59.828125 15.214844 60.0625 15.355469 60.246094 15.539062 C 61.410156 16.71875 62.558594 17.90625 63.710938 19.09375 C 63.839844 19.222656 63.949219 19.359375 63.925781 19.558594 Z M 63.925781 19.558594 " fill-opacity="1" fill-rule="nonzero"/><path fill="#f58220" d="M 95.949219 23.382812 C 95.921875 23.675781 95.722656 23.78125 95.5 23.867188 C 94.027344 24.429688 92.550781 24.992188 91.074219 25.554688 C 90.835938 25.644531 90.546875 25.742188 90.402344 25.445312 C 90.25 25.125 90.527344 24.972656 90.761719 24.878906 C 92.273438 24.277344 93.789062 23.683594 95.3125 23.105469 C 95.574219 23.007812 95.882812 22.988281 95.949219 23.382812 Z M 95.949219 23.382812 " fill-opacity="1" fill-rule="nonzero"/><path fill="#f58220" d="M 69.070312 16.242188 C 68.796875 16.328125 68.726562 16.117188 68.644531 15.925781 C 68.015625 14.394531 67.375 12.863281 66.753906 11.328125 C 66.660156 11.097656 66.605469 10.800781 66.929688 10.675781 C 67.148438 10.585938 67.34375 10.710938 67.429688 10.917969 C 68.0625 12.476562 68.683594 14.039062 69.3125 15.597656 C 69.324219 15.648438 69.335938 15.699219 69.339844 15.75 C 69.351562 15.96875 69.3125 16.167969 69.070312 16.242188 Z M 69.070312 16.242188 " fill-opacity="1" fill-rule="nonzero"/><path fill="#f58220" d="M 75.632812 14.378906 C 75.628906 14.648438 75.660156 15.011719 75.265625 15.003906 C 74.902344 15 74.863281 14.652344 74.863281 14.375 C 74.847656 12.777344 74.851562 11.175781 74.855469 9.578125 C 74.855469 9.308594 74.941406 9.035156 75.257812 9.027344 C 75.605469 9.019531 75.625 9.324219 75.628906 9.578125 C 75.636719 10.390625 75.632812 11.203125 75.632812 12.015625 L 75.636719 12.015625 C 75.636719 12.804688 75.644531 13.589844 75.632812 14.378906 Z M 75.632812 14.378906 " fill-opacity="1" fill-rule="nonzero"/><path fill="#f58220" d="M 83.574219 11.3125 C 82.984375 12.769531 82.402344 14.230469 81.8125 15.691406 C 81.722656 15.921875 81.65625 16.191406 81.308594 16.203125 C 80.945312 16.089844 80.976562 15.8125 81.078125 15.535156 C 81.359375 14.773438 81.65625 14.015625 81.949219 13.257812 C 82.238281 12.523438 82.535156 11.796875 82.828125 11.066406 C 82.933594 10.796875 83.058594 10.488281 83.40625 10.601562 C 83.742188 10.71875 83.691406 11.019531 83.574219 11.3125 Z M 83.574219 11.3125 " fill-opacity="1" fill-rule="nonzero"/><path fill="#f58220" d="M 90.601562 16.382812 C 89.585938 17.410156 88.554688 18.429688 87.53125 19.453125 C 87.371094 19.613281 87.222656 19.792969 87 19.828125 C 86.84375 19.835938 86.722656 19.804688 86.664062 19.671875 C 86.59375 19.519531 86.609375 19.359375 86.714844 19.242188 C 86.929688 18.996094 87.164062 18.761719 87.398438 18.527344 C 88.292969 17.625 89.179688 16.71875 90.085938 15.824219 C 90.300781 15.613281 90.546875 15.1875 90.890625 15.515625 C 91.269531 15.878906 90.835938 16.144531 90.601562 16.382812 Z M 90.601562 16.382812 " fill-opacity="1" fill-rule="nonzero"/><path fill="#f58220" d="M 60.21875 25.257812 C 60.113281 25.609375 59.792969 25.535156 59.511719 25.425781 C 58.074219 24.863281 56.632812 24.300781 55.191406 23.734375 C 55.050781 23.675781 54.921875 23.601562 54.800781 23.507812 C 54.675781 23.410156 54.605469 23.269531 54.671875 23.105469 C 54.738281 22.941406 54.878906 22.890625 55.109375 22.902344 C 55.21875 22.9375 55.390625 22.980469 55.554688 23.042969 C 56.945312 23.59375 58.335938 24.148438 59.726562 24.691406 C 60.003906 24.796875 60.316406 24.917969 60.21875 25.257812 Z M 60.21875 25.257812 " fill-opacity="1" fill-rule="nonzero"/><path fill="#f58220" d="M 65.042969 5.933594 C 65.308594 5.894531 65.386719 6.058594 65.476562 6.214844 C 65.917969 6.992188 66.207031 7.828125 66.5 8.667969 C 66.582031 8.894531 66.5625 9.136719 66.277344 9.222656 C 66.054688 9.292969 65.890625 9.195312 65.792969 8.972656 C 65.441406 8.1875 65.066406 7.414062 64.738281 6.617188 C 64.609375 6.308594 64.679688 6.015625 65.042969 5.933594 Z M 65.042969 5.933594 " fill-opacity="1" fill-rule="nonzero"/><path fill="#f58220" d="M 53.199219 22.351562 C 53.152344 22.695312 52.914062 22.808594 52.695312 22.730469 C 51.816406 22.414062 50.949219 22.054688 50.082031 21.699219 C 49.933594 21.640625 49.863281 21.484375 49.910156 21.316406 C 49.96875 21.121094 50.125 20.996094 50.3125 21.046875 C 51.265625 21.308594 52.195312 21.644531 53.058594 22.136719 C 53.132812 22.179688 53.160156 22.296875 53.199219 22.351562 Z M 53.199219 22.351562 " fill-opacity="1" fill-rule="nonzero"/><path fill="#f58220" d="M 94.589844 12.097656 C 94.601562 12.363281 94.480469 12.5 94.359375 12.625 C 93.828125 13.164062 93.292969 13.703125 92.753906 14.234375 C 92.566406 14.421875 92.335938 14.601562 92.09375 14.378906 C 91.847656 14.152344 92.015625 13.902344 92.199219 13.71875 C 92.765625 13.140625 93.339844 12.574219 93.917969 12.007812 C 94.074219 11.851562 94.261719 11.796875 94.476562 11.835938 C 94.539062 11.851562 94.566406 12.046875 94.589844 12.097656 Z M 94.589844 12.097656 " fill-opacity="1" fill-rule="nonzero"/><path fill="#f58220" d="M 85.21875 5.875 C 85.480469 5.929688 85.582031 6.109375 85.5 6.328125 C 85.179688 7.183594 84.84375 8.03125 84.496094 8.878906 C 84.40625 9.097656 84.207031 9.15625 83.984375 9.066406 C 83.78125 8.984375 83.742188 8.8125 83.8125 8.625 C 84.136719 7.796875 84.464844 6.972656 84.800781 6.152344 C 84.871094 5.976562 85.027344 5.878906 85.21875 5.875 Z M 85.21875 5.875 " fill-opacity="1" fill-rule="nonzero"/><path fill="#f58220" d="M 100.46875 21.921875 C 99.625 22.269531 98.777344 22.597656 98.058594 22.882812 C 97.71875 22.917969 97.546875 22.882812 97.484375 22.675781 C 97.425781 22.484375 97.5 22.300781 97.679688 22.226562 C 98.527344 21.894531 99.382812 21.570312 100.238281 21.261719 C 100.421875 21.199219 100.601562 21.285156 100.667969 21.484375 C 100.738281 21.679688 100.644531 21.847656 100.46875 21.921875 Z M 100.46875 21.921875 " fill-opacity="1" fill-rule="nonzero"/><path fill="#f58220" d="M 58.59375 14.136719 C 58.539062 14.492188 58.28125 14.609375 58.050781 14.421875 C 57.304688 13.804688 56.605469 13.136719 56.011719 12.371094 C 55.917969 12.253906 55.933594 12.070312 56.050781 11.949219 C 56.203125 11.792969 56.410156 11.800781 56.539062 11.929688 C 57.210938 12.582031 57.867188 13.253906 58.527344 13.929688 C 58.570312 13.976562 58.574219 14.070312 58.59375 14.136719 Z M 58.59375 14.136719 " fill-opacity="1" fill-rule="nonzero"/><path fill="#f58220" d="M 75.625 5.6875 C 75.625 6.117188 75.636719 6.550781 75.621094 6.980469 C 75.617188 7.199219 75.515625 7.382812 75.269531 7.398438 C 75.011719 7.414062 74.894531 7.222656 74.882812 7.015625 C 74.832031 6.128906 74.796875 5.242188 74.914062 4.359375 C 74.941406 4.140625 75.066406 3.980469 75.324219 4.015625 C 75.539062 4.046875 75.617188 4.207031 75.621094 4.394531 C 75.632812 4.824219 75.625 5.257812 75.625 5.6875 Z M 75.625 5.6875 " fill-opacity="1" fill-rule="nonzero"/><path fill="#f58220" d="M 74.816406 1.054688 C 74.953125 0.65625 74.613281 0 75.273438 0.00390625 C 75.929688 0.00390625 75.679688 0.644531 75.679688 1.019531 C 75.679688 1.429688 75.898438 2.125 75.265625 2.125 C 74.589844 2.121094 74.984375 1.402344 74.816406 1.054688 Z M 74.816406 1.054688 " fill-opacity="1" fill-rule="nonzero"/><path fill="#f58220" d="M 97.375 9.441406 C 97.378906 9.804688 96.375 10.757812 95.933594 10.75 C 95.714844 10.648438 95.53125 10.472656 95.761719 10.15625 C 96.066406 9.75 96.40625 9.363281 96.839844 9.097656 C 97.179688 8.890625 97.371094 9.074219 97.375 9.441406 Z M 97.375 9.441406 " fill-opacity="1" fill-rule="nonzero"/><path fill="#f58220" d="M 54.828125 10.457031 C 54.789062 10.757812 54.511719 10.867188 54.292969 10.710938 C 53.863281 10.398438 53.480469 10.035156 53.144531 9.621094 C 52.953125 9.378906 53.140625 9.136719 53.464844 9.109375 C 53.816406 9.074219 54.824219 10.046875 54.828125 10.457031 Z M 54.828125 10.457031 " fill-opacity="1" fill-rule="nonzero"/><path fill="#f58220" d="M 64.523438 3.820312 C 64.535156 4.097656 64.460938 4.222656 64.308594 4.289062 C 64.152344 4.355469 63.972656 4.328125 63.898438 4.191406 C 63.636719 3.703125 63.363281 3.214844 63.320312 2.648438 C 63.304688 2.46875 63.382812 2.347656 63.558594 2.292969 C 63.632812 2.265625 63.707031 2.265625 63.78125 2.296875 C 63.855469 2.328125 63.910156 2.378906 63.945312 2.453125 C 64.164062 2.933594 64.359375 3.425781 64.523438 3.820312 Z M 64.523438 3.820312 " fill-opacity="1" fill-rule="nonzero"/><path fill="#f58220" d="M 85.8125 3.65625 C 85.859375 3.199219 86.101562 2.777344 86.332031 2.355469 C 86.410156 2.207031 86.578125 2.179688 86.734375 2.234375 C 86.90625 2.296875 86.957031 2.453125 86.933594 2.605469 C 86.847656 3.085938 86.691406 3.539062 86.453125 3.964844 C 86.363281 4.125 86.203125 4.226562 86.003906 4.144531 C 85.796875 4.0625 85.8125 3.871094 85.8125 3.65625 Z M 85.8125 3.65625 " fill-opacity="1" fill-rule="nonzero"/><path fill="#f58220" d="M 48.136719 20.621094 C 48.0625 20.820312 47.890625 20.898438 47.707031 20.824219 C 47.28125 20.660156 46.863281 20.480469 46.457031 20.273438 C 46.296875 20.195312 46.203125 20.015625 46.296875 19.820312 C 46.367188 19.660156 46.515625 19.625 46.734375 19.621094 C 47.183594 19.714844 47.636719 19.9375 48.070312 20.199219 C 48.210938 20.289062 48.195312 20.476562 48.136719 20.621094 Z M 48.136719 20.621094 " fill-opacity="1" fill-rule="nonzero"/><path fill="#f58220" d="M 104.261719 20.164062 C 104.078125 20.78125 103.445312 20.75 102.972656 20.929688 C 102.78125 21.007812 102.480469 20.925781 102.527344 20.679688 C 102.664062 19.929688 103.4375 20.210938 103.78125 19.9375 C 104.070312 19.90625 104.316406 19.984375 104.261719 20.164062 Z M 104.261719 20.164062 " fill-opacity="1" fill-rule="nonzero"/><path fill="#aa6353" d="M 58.566406 29.84375 C 61.792969 29.128906 65.980469 29.039062 68.820312 30.9375 C 69.015625 31.070312 69.203125 31.214844 69.382812 31.367188 C 69.199219 31.21875 69.011719 31.082031 68.816406 30.949219 C 65.945312 29.066406 61.8125 29.171875 58.566406 29.847656 Z M 58.566406 29.84375 " fill-opacity="1" fill-rule="nonzero"/><path fill="#aa6353" d="M 81.679688 31.859375 C 83.585938 30.617188 85.882812 30 88.140625 29.855469 C 89.753906 29.769531 91.386719 29.957031 92.949219 30.367188 C 93.195312 30.425781 93.550781 30.539062 93.796875 30.609375 C 93.941406 30.660156 94.277344 30.777344 94.421875 30.824219 C 94.667969 30.910156 95 31.050781 95.242188 31.144531 C 93.617188 30.492188 91.882812 30.035156 90.125 29.90625 C 87.210938 29.6875 84.164062 30.296875 81.679688 31.859375 Z M 81.679688 31.859375 " fill-opacity="1" fill-rule="nonzero"/><path fill="#aa6353" d="M 100.691406 35.519531 C 97.675781 35.015625 94.640625 34.609375 91.59375 34.359375 C 88.933594 34.15625 86.238281 34 83.585938 34.382812 C 83.210938 34.4375 82.828125 34.523438 82.464844 34.617188 C 82.832031 34.511719 83.207031 34.433594 83.585938 34.371094 C 86.234375 33.976562 88.933594 34.132812 91.597656 34.328125 C 94.644531 34.585938 97.691406 34.984375 100.695312 35.519531 Z M 100.691406 35.519531 " fill-opacity="1" fill-rule="nonzero"/><path fill="#aa6353" d="M 104.960938 39.089844 C 98.160156 38.347656 91.308594 37.523438 84.472656 37.167969 C 84.15625 37.15625 83.601562 37.15625 83.285156 37.140625 C 83.609375 37.144531 84.15625 37.152344 84.476562 37.160156 C 85.316406 37.195312 86.511719 37.261719 87.363281 37.320312 C 93.238281 37.753906 99.117188 38.394531 104.960938 39.09375 Z M 104.960938 39.089844 " fill-opacity="1" fill-rule="nonzero"/><path fill="#aa6353" d="M 51.546875 34.613281 C 55 34.0625 58.492188 33.6875 61.992188 33.675781 C 63.738281 33.691406 65.511719 33.753906 67.199219 34.238281 C 67.53125 34.339844 67.871094 34.457031 68.175781 34.617188 C 67.859375 34.46875 67.53125 34.34375 67.195312 34.25 C 65.507812 33.777344 63.738281 33.710938 61.992188 33.699219 C 58.496094 33.714844 54.996094 34.09375 51.546875 34.613281 Z M 51.546875 34.613281 " fill-opacity="1" fill-rule="nonzero"/><path fill="#aa6353" d="M 49.695312 37.867188 C 55.332031 37.539062 61.046875 37.230469 66.6875 37.140625 L 67.820312 37.136719 C 61.785156 37.210938 55.722656 37.5625 49.695312 37.867188 Z M 49.695312 37.867188 " fill-opacity="1" fill-rule="nonzero"/><path stroke-linecap="butt" transform="matrix(0.0306336, 0, 0, 0.0306336, 36.343693, -0.690394)" fill-opacity="1" fill="#ce7d6f" fill-rule="nonzero" stroke-linejoin="miter" d="M 1375.763992 1255.4822 C 1375.763992 1291.313987 1307.288298 1311.588914 1271.456511 1311.588914 C 1235.624723 1311.588914 1176.585158 1290.803926 1176.585158 1254.972139 C 1176.585158 1219.140351 1235.624723 1182.033411 1271.456511 1182.033411 C 1307.288298 1182.033411 1375.763992 1219.650412 1375.763992 1255.4822 Z M 1375.763992 1255.4822 " stroke="#af6c53" stroke-width="1" stroke-opacity="1" stroke-miterlimit="10"/></svg>